<svg width="95" height="95" viewBox="0 0 95 95" fill="none" xmlns="http://www.w3.org/2000/svg">
<path d="M4.45312 95H46.0156C46.835 95 47.5 94.332 47.5 93.5156C47.5 92.6992 46.835 92.0312 46.0156 92.0312H4.45312C3.63375 92.0312 2.96875 91.3633 2.96875 90.5469V4.45312C2.96875 3.63375 3.63375 2.96875 4.45312 2.96875H66.7969C67.6133 2.96875 68.2812 3.63375 68.2812 4.45312V19.2969C68.2812 20.1162 68.9492 20.7812 69.7656 20.7812C70.582 20.7812 71.25 20.1162 71.25 19.2969V4.45312C71.25 1.99797 69.252 0 66.7969 0H4.45312C1.99797 0 0 1.99797 0 4.45312V90.5469C0 93.002 1.99797 95 4.45312 95Z" fill="white"/>
<path d="M53.4375 31.1719V90.5469C53.4375 93.002 55.4355 95 57.8906 95H90.5469C93.002 95 95 93.002 95 90.5469V31.1719C95 28.7167 93.002 26.7188 90.5469 26.7188H57.8906C55.4355 26.7188 53.4375 28.7167 53.4375 31.1719ZM92.0312 31.1719V90.5469C92.0312 91.3633 91.3633 92.0312 90.5469 92.0312H57.8906C57.0742 92.0312 56.4062 91.3633 56.4062 90.5469V31.1719C56.4062 30.3525 57.0742 29.6875 57.8906 29.6875H90.5469C91.3633 29.6875 92.0312 30.3525 92.0312 31.1719Z" fill="white"/>
<path d="M35.625 86.0938C37.2646 86.0938 38.5938 84.7646 38.5938 83.125C38.5938 81.4854 37.2646 80.1562 35.625 80.1562C33.9854 80.1562 32.6562 81.4854 32.6562 83.125C32.6562 84.7646 33.9854 86.0938 35.625 86.0938Z" fill="white"/>
<path d="M74.2188 86.0938C75.8583 86.0938 77.1875 84.7646 77.1875 83.125C77.1875 81.4854 75.8583 80.1562 74.2188 80.1562C72.5792 80.1562 71.25 81.4854 71.25 83.125C71.25 84.7646 72.5792 86.0938 74.2188 86.0938Z" fill="white"/>
</svg>
