<svg width="114" height="87" viewBox="0 0 114 87" fill="none" xmlns="http://www.w3.org/2000/svg">
<path d="M105.857 0C101.368 0 97.7143 3.65944 97.7143 8.15625C97.7143 10.5705 98.7891 12.721 100.461 14.2163L76.5727 52.3631C75.5657 51.9145 74.4583 51.6562 73.2857 51.6562C70.9297 51.6562 68.8207 52.6785 67.3333 54.2853L42.7066 38.6661C43.1626 37.6493 43.4286 36.5291 43.4286 35.3438C43.4286 30.8469 39.7751 27.1875 35.2857 27.1875C30.7963 27.1875 27.1429 30.8469 27.1429 35.3438C27.1429 37.8015 28.2557 39.9819 29.9766 41.4772L11.2616 71.3128C10.3007 70.9132 9.24757 70.6875 8.14286 70.6875C3.65343 70.6875 0 74.3469 0 78.8438C0 83.3406 3.65343 87 8.14286 87C12.6323 87 16.2857 83.3406 16.2857 78.8438C16.2857 76.4295 15.2136 74.2817 13.5443 72.7837L32.2837 42.9073C33.2147 43.2825 34.2244 43.5 35.2857 43.5C37.6173 43.5 39.7073 42.5022 41.192 40.9253L65.8323 56.5527C65.3953 57.5532 65.1429 58.6516 65.1429 59.8125C65.1429 64.3093 68.7963 67.9688 73.2857 67.9688C77.7751 67.9688 81.4286 64.3093 81.4286 59.8125C81.4286 57.4662 80.4216 55.3646 78.831 53.8747L102.747 15.6872C103.705 16.0868 104.755 16.3125 105.857 16.3125C110.347 16.3125 114 12.6531 114 8.15625C114 3.65944 110.347 0 105.857 0ZM13.5714 78.8438C13.5714 81.8453 11.1367 84.2812 8.14286 84.2812C5.149 84.2812 2.71429 81.8453 2.71429 78.8438C2.71429 75.8422 5.149 73.4062 8.14286 73.4062C11.1367 73.4062 13.5714 75.8422 13.5714 78.8438ZM35.2857 40.7812C32.2919 40.7812 29.8571 38.3425 29.8571 35.3438C29.8571 32.345 32.2919 29.9062 35.2857 29.9062C38.2796 29.9062 40.7143 32.345 40.7143 35.3438C40.7143 38.3425 38.2796 40.7812 35.2857 40.7812ZM73.2857 65.25C70.2891 65.25 67.8571 62.814 67.8571 59.8125C67.8571 56.811 70.2891 54.375 73.2857 54.375C76.2823 54.375 78.7143 56.811 78.7143 59.8125C78.7143 62.814 76.2823 65.25 73.2857 65.25ZM105.857 13.5938C102.861 13.5938 100.429 11.155 100.429 8.15625C100.429 5.15747 102.861 2.71875 105.857 2.71875C108.854 2.71875 111.286 5.15747 111.286 8.15625C111.286 11.155 108.854 13.5938 105.857 13.5938Z" fill="white"/>
</svg>
