<svg width="69" height="100" viewBox="0 0 69 100" fill="none" xmlns="http://www.w3.org/2000/svg">
<path d="M34.5 0C17.9086 0 0 13.1437 0 34.375C0 44.8531 4.18391 53.6688 12.2193 60.35C12.304 60.4531 12.4012 60.5437 12.5078 60.625C18.47 67.0687 18.7711 68.2906 18.8119 71.125C18.8307 72.2469 18.8213 72.5813 18.8119 72.7594L18.7994 73.4125C18.7523 74.825 18.6802 77.1906 21.619 78.0844L47.0015 83.65C47.1176 83.675 47.2274 83.6875 47.3371 83.6875C48.0585 83.6875 48.7109 83.1906 48.8677 82.4562C49.059 81.6125 48.5195 80.7812 47.6727 80.5938L22.4093 75.0594C21.9232 74.9125 21.8824 74.8969 21.9263 73.5031L21.9357 72.9062C21.9357 72.9062 21.9671 72.6625 21.942 71.075C21.8824 67.1062 21.0168 65.1937 14.7001 58.3906C14.581 58.2469 14.4335 58.125 14.2705 58.025C6.88118 51.7688 3.13636 43.8125 3.13636 34.375C3.13636 15.0719 19.4141 3.125 34.5 3.125C49.9184 3.125 65.8636 14.8156 65.8636 34.375C65.8636 46.8063 59.8167 53.6594 54.8299 57.9719C54.6543 58.0531 54.5037 58.1688 54.3689 58.3125C47.9801 65.2 47.1145 67.1125 47.0549 71.0813C47.0549 71.1719 47.0517 71.2812 47.0549 71.4062L47.0517 71.5125C47.0423 71.75 47.0078 71.8812 47.0078 71.9313C46.9043 71.9156 46.644 71.875 46.644 71.875L33.487 68.7906C32.6339 68.5969 31.7996 69.1156 31.602 69.9531C31.4044 70.7969 31.925 71.6344 32.7687 71.8375L45.7658 74.875C45.9383 74.9375 47.5002 75.4437 48.8175 74.5219C49.3946 74.1188 50.0595 73.3281 50.1818 71.8187L50.1912 71.6719C50.1944 71.5687 50.1975 71.4688 50.1975 71.3594C50.1975 71.3312 50.1975 71.3031 50.1944 71.2812L50.1975 71.1344C50.2414 68.3156 50.5331 67.0906 56.4859 60.65C56.5141 60.625 56.5455 60.6063 56.5706 60.5812C64.9321 53.5719 69 45 69 34.375C69 12.8594 51.4583 0 34.5 0Z" fill="white"/>
<path d="M47.0455 92.1875C47.7637 92.1875 48.4129 91.6969 48.5697 90.9656C48.7642 90.125 48.2373 89.2906 47.3873 89.0969L22.2964 83.4313C21.4465 83.2438 20.6122 83.7688 20.4209 84.6094C20.2264 85.45 20.7565 86.2875 21.6033 86.4782L46.6942 92.1469C46.8165 92.175 46.9325 92.1875 47.0455 92.1875Z" fill="white"/>
<path d="M23.8646 92.3562C23.0146 92.1687 22.1835 92.6968 21.989 93.5375C21.8009 94.3843 22.3309 95.2156 23.1777 95.4062L43.5641 99.9625C43.6833 99.9875 43.7962 100 43.9091 100C44.6273 100 45.2765 99.5062 45.4396 98.7781C45.6278 97.9312 45.0978 97.1 44.251 96.9093L23.8646 92.3562Z" fill="white"/>
</svg>
