<svg width="127" height="40" viewBox="0 0 127 40" fill="none" xmlns="http://www.w3.org/2000/svg">
<g clip-path="url(#clip0_1_6)">
<path d="M6.05392 40L0.819138 30.4515L6.05392 20.902L11.7278 17.7811L19.1809 30.4515L13.5148 40H6.05392Z" fill="#C7AA8B"/>
</g>
<path d="M37.3047 28.6875C37.3047 28.2891 37.2578 27.9375 37.1641 27.6328C37.0703 27.3203 36.9062 27.0391 36.6719 26.7891C36.4375 26.5391 36.1094 26.3008 35.6875 26.0742C35.2656 25.8477 34.7305 25.6172 34.082 25.3828C33.3789 25.1328 32.7422 24.8555 32.1719 24.5508C31.6016 24.2383 31.1133 23.8828 30.707 23.4844C30.3086 23.0859 30 22.6289 29.7812 22.1133C29.5625 21.5977 29.4531 21.0078 29.4531 20.3438C29.4531 19.6797 29.5664 19.0664 29.793 18.5039C30.0273 17.9414 30.3555 17.4531 30.7773 17.0391C31.207 16.6172 31.7227 16.2891 32.3242 16.0547C32.9258 15.8203 33.5977 15.7031 34.3398 15.7031C35.4492 15.7031 36.3828 15.9492 37.1406 16.4414C37.9062 16.9258 38.4844 17.5625 38.875 18.3516C39.2656 19.1328 39.4609 19.9688 39.4609 20.8594H37.3047C37.3047 20.2188 37.1992 19.6523 36.9883 19.1602C36.7852 18.6602 36.4648 18.2695 36.0273 17.9883C35.5977 17.6992 35.0352 17.5547 34.3398 17.5547C33.7148 17.5547 33.1992 17.6758 32.793 17.918C32.3945 18.1602 32.0977 18.4883 31.9023 18.9023C31.7148 19.3164 31.6211 19.7891 31.6211 20.3203C31.6211 20.6797 31.6836 21.0078 31.8086 21.3047C31.9336 21.5938 32.125 21.8633 32.3828 22.1133C32.6484 22.3633 32.9766 22.5938 33.3672 22.8047C33.7656 23.0156 34.2344 23.2188 34.7734 23.4141C35.6094 23.6875 36.3242 23.9922 36.918 24.3281C37.5117 24.6641 37.9961 25.043 38.3711 25.4648C38.7461 25.8789 39.0195 26.3516 39.1914 26.8828C39.3711 27.4062 39.4609 28 39.4609 28.6641C39.4609 29.3594 39.3438 29.9883 39.1094 30.5508C38.8828 31.1133 38.5508 31.5938 38.1133 31.9922C37.6758 32.3906 37.1484 32.6992 36.5312 32.918C35.9141 33.1289 35.2188 33.2344 34.4453 33.2344C33.7734 33.2344 33.1133 33.125 32.4648 32.9062C31.8242 32.6875 31.2422 32.3594 30.7188 31.9219C30.1953 31.4844 29.7773 30.9453 29.4648 30.3047C29.1523 29.6562 28.9961 28.9062 28.9961 28.0547H31.1523C31.1523 28.6406 31.2383 29.1445 31.4102 29.5664C31.582 29.9805 31.8203 30.3242 32.125 30.5977C32.4297 30.8711 32.7773 31.0742 33.168 31.207C33.5664 31.332 33.9922 31.3945 34.4453 31.3945C35.0703 31.3945 35.5938 31.2852 36.0156 31.0664C36.4453 30.8477 36.7656 30.5352 36.9766 30.1289C37.1953 29.7227 37.3047 29.2422 37.3047 28.6875ZM47.7695 15.9375V33H45.6367V15.9375H47.7695ZM52.2578 15.9375V17.7891H41.1602V15.9375H52.2578ZM65.5469 22.9922V25.957C65.5469 27.1602 65.4141 28.2188 65.1484 29.1328C64.8906 30.0391 64.5117 30.7969 64.0117 31.4062C63.5117 32.0156 62.9102 32.4727 62.207 32.7773C61.5039 33.082 60.7109 33.2344 59.8281 33.2344C58.9766 33.2344 58.1992 33.082 57.4961 32.7773C56.793 32.4727 56.1875 32.0156 55.6797 31.4062C55.1719 30.7969 54.7773 30.0391 54.4961 29.1328C54.2227 28.2188 54.0859 27.1602 54.0859 25.957V22.9922C54.0859 21.7891 54.2227 20.7344 54.4961 19.8281C54.7695 18.9141 55.1602 18.1523 55.668 17.543C56.1758 16.9336 56.7812 16.4766 57.4844 16.1719C58.1875 15.8594 58.9648 15.7031 59.8164 15.7031C60.6992 15.7031 61.4922 15.8594 62.1953 16.1719C62.9062 16.4766 63.5078 16.9336 64 17.543C64.5 18.1523 64.8828 18.9141 65.1484 19.8281C65.4141 20.7344 65.5469 21.7891 65.5469 22.9922ZM63.4141 25.957V22.9688C63.4141 22.0312 63.3359 21.2266 63.1797 20.5547C63.0234 19.875 62.793 19.3203 62.4883 18.8906C62.1836 18.4609 61.8086 18.1445 61.3633 17.9414C60.918 17.7305 60.4023 17.625 59.8164 17.625C59.2617 17.625 58.7617 17.7305 58.3164 17.9414C57.8789 18.1445 57.5039 18.4609 57.1914 18.8906C56.8789 19.3203 56.6367 19.875 56.4648 20.5547C56.3008 21.2266 56.2188 22.0312 56.2188 22.9688V25.957C56.2188 26.9023 56.3008 27.7148 56.4648 28.3945C56.6367 29.0664 56.8789 29.6211 57.1914 30.0586C57.5117 30.4883 57.8945 30.8086 58.3398 31.0195C58.7852 31.2227 59.2812 31.3242 59.8281 31.3242C60.4141 31.3242 60.9297 31.2227 61.375 31.0195C61.8281 30.8086 62.2031 30.4883 62.5 30.0586C62.8047 29.6211 63.0312 29.0664 63.1797 28.3945C63.3359 27.7148 63.4141 26.9023 63.4141 25.957ZM80.043 15.9375V33H77.875L71.043 19.8398V33H68.8867V15.9375H71.043L77.9102 29.1328V15.9375H80.043ZM92.9453 31.1602V33H85.5391V31.1602H92.9453ZM85.9258 15.9375V33H83.7695V15.9375H85.9258ZM91.9492 23.2734V25.1133H85.5391V23.2734H91.9492ZM92.8281 15.9375V17.7891H85.5391V15.9375H92.8281Z" fill="#EDEDED"/>
<defs>
<clipPath id="clip0_1_6">
<rect width="20" height="23" fill="white" transform="translate(0 17)"/>
</clipPath>
</defs>
</svg>
